<svg viewBox="0 0 1920 1080" height="1080" width="1920" xmlns="http://www.w3.org/2000/svg" version="1.1"><g transform-origin="center" transform="scale(1, 1) rotate(0)"><rect x="0" y="0" width="1920" height="1080" fill="#0a1a3200"></rect><linearGradient id="linear-gradient-r1"><stop offset="0%" stop-color="#ef444440" stop-opacity="100%"></stop><stop offset="100%" stop-color="#ef444440" stop-opacity="100%"></stop></linearGradient><filter x="-2%" y="-2%" width="104%" height="104%" filterUnits="objectBoundingBox" id="strokeStyle"><feTurbulence type="fractalNoise" baseFrequency="1.2" numOctaves="3" result="noise"></feTurbulence><feDisplacementMap xChannelSelector="R" yChannelSelector="G" scale="3" in="SourceGraphic" result="newSource"></feDisplacementMap></filter><g filter="url(#strokeStyle)"><path d="M 1644 540 C1644 882 1302 1224 960 1224  C618 1224 276 882 276 540  C276 198 618 -144 960 -144  C1302 -144 1644 198 1644 540" fill="none" stroke-linecap="round" stroke="url(#linear-gradient-r1)" stroke-width="5" style="transform-origin: center center; transform: scale(1.2) translate(433px, -87px); transition: all 0.4s cubic-bezier(0.16, 1, 0.3, 1) 0s;"></path><path d="M 1611 540 C1611 865.5 1285.5 1191 960.0000000000001 1191  C634.5000000000001 1191 309.0000000000001 865.5 309.0000000000001 540  C309.0000000000001 214.5 634.5000000000001 -111 960.0000000000001 -111  C1285.5 -111 1611 214.5 1611 540" fill="none" stroke-linecap="round" stroke="url(#linear-gradient-r1)" stroke-width="2.5" style="transform-origin: center center; transform: scale(1.2) translate(433px, -87px); transition: all 0.4s cubic-bezier(0.16, 1, 0.3, 1) 0s;"></path><path d="M 1578 540 C1578 849 1269 1158 960 1158  C651 1158 342 849 342 540  C342 231 651 -78 960 -78  C1269 -78 1578 231 1578 540" fill="none" stroke-linecap="round" stroke="url(#linear-gradient-r1)" stroke-width="1.6666666666666667" style="transform-origin: center center; transform: scale(1.2) translate(433px, -87px); transition: all 0.4s cubic-bezier(0.16, 1, 0.3, 1) 0s;"></path><path d="M 1545 540 C1545 832.5 1252.5 1125 960 1125  C667.5 1125 375 832.5 375 540  C375 247.5 667.5 -45 960 -45  C1252.5 -45 1545 247.5 1545 540" fill="none" stroke-linecap="round" stroke="url(#linear-gradient-r1)" stroke-width="1.25" style="transform-origin: center center; transform: scale(1.2) translate(433px, -87px); transition: all 0.4s cubic-bezier(0.16, 1, 0.3, 1) 0s;"></path><path d="M 1512 540 C1512 816 1236 1092 960 1092  C684 1092 408 816 408 540  C408 264 684 -12 960 -12  C1236 -12 1512 264 1512 540" fill="none" stroke-linecap="round" stroke="url(#linear-gradient-r1)" stroke-width="1" style="transform-origin: center center; transform: scale(1.2) translate(433px, -87px); transition: all 0.4s cubic-bezier(0.16, 1, 0.3, 1) 0s;"></path><path d="M 1479 540 C1479 799.5 1219.5 1059 960 1059  C700.5 1059 441 799.5 441 540  C441 280.5 700.5 21 960 21  C1219.5 21 1479 280.5 1479 540" fill="none" stroke-linecap="round" stroke="url(#linear-gradient-r1)" stroke-width="0.8333333333333334" style="transform-origin: center center; transform: scale(1.2) translate(433px, -87px); transition: all 0.4s cubic-bezier(0.16, 1, 0.3, 1) 0s;"></path><path d="M 1446 540 C1446 783 1203 1026 960 1026  C717 1026 474 783 474 540  C474 297 717 54 960 54  C1203 54 1446 297 1446 540" fill="none" stroke-linecap="round" stroke="url(#linear-gradient-r1)" stroke-width="0.7142857142857143" style="transform-origin: center center; transform: scale(1.2) translate(433px, -87px); transition: all 0.4s cubic-bezier(0.16, 1, 0.3, 1) 0s;"></path><path d="M 1413 540 C1413 766.5 1186.5 993 959.9999999999999 993  C733.4999999999999 993 506.9999999999999 766.5 506.9999999999999 540  C506.9999999999999 313.5 733.4999999999999 87 959.9999999999999 87  C1186.5 87 1413 313.5 1413 540" fill="none" stroke-linecap="round" stroke="url(#linear-gradient-r1)" stroke-width="0.625" style="transform-origin: center center; transform: scale(1.2) translate(433px, -87px); transition: all 0.4s cubic-bezier(0.16, 1, 0.3, 1) 0s;"></path><path d="M 1380 540 C1380 750 1170 960 960 960  C750 960 540 750 540 540  C540 330 750 120 960 120  C1170 120 1380 330 1380 540" fill="none" stroke-linecap="round" stroke="url(#linear-gradient-r1)" stroke-width="0.5555555555555556" style="transform-origin: center center; transform: scale(1.2) translate(433px, -87px); transition: all 0.4s cubic-bezier(0.16, 1, 0.3, 1) 0s;"></path><path d="M 1347 540 C1347 733.5 1153.5 927 960 927  C766.5 927 573 733.5 573 540  C573 346.5 766.5 153 960 153  C1153.5 153 1347 346.5 1347 540" fill="none" stroke-linecap="round" stroke="url(#linear-gradient-r1)" stroke-width="0.5" style="transform-origin: center center; transform: scale(1.2) translate(433px, -87px); transition: all 0.4s cubic-bezier(0.16, 1, 0.3, 1) 0s;"></path><path d="M 1314 540 C1314 717 1137 894 960 894  C783 894 606 717 606 540  C606 363 783 186 960 186  C1137 186 1314 363 1314 540" fill="none" stroke-linecap="round" stroke="url(#linear-gradient-r1)" stroke-width="0.45454545454545453" style="transform-origin: center center; transform: scale(1.2) translate(433px, -87px); transition: all 0.4s cubic-bezier(0.16, 1, 0.3, 1) 0s;"></path><path d="M 1281 540 C1281 700.5 1120.5 861 960 861  C799.5 861 639 700.5 639 540  C639 379.5 799.5 219 960 219  C1120.5 219 1281 379.5 1281 540" fill="none" stroke-linecap="round" stroke="url(#linear-gradient-r1)" stroke-width="0.4166666666666667" style="transform-origin: center center; transform: scale(1.2) translate(433px, -87px); transition: all 0.4s cubic-bezier(0.16, 1, 0.3, 1) 0s;"></path><path d="M 1248 540 C1248 684 1104 828 960 828  C816 828 672 684 672 540  C672 396 816 252 960 252  C1104 252 1248 396 1248 540" fill="none" stroke-linecap="round" stroke="url(#linear-gradient-r1)" stroke-width="0.38461538461538464" style="transform-origin: center center; transform: scale(1.2) translate(433px, -87px); transition: all 0.4s cubic-bezier(0.16, 1, 0.3, 1) 0s;"></path><path d="M 1215 540 C1215 667.5 1087.5 795 960 795  C832.5 795 705 667.5 705 540  C705 412.5 832.5 285 960 285  C1087.5 285 1215 412.5 1215 540" fill="none" stroke-linecap="round" stroke="url(#linear-gradient-r1)" stroke-width="0.35714285714285715" style="transform-origin: center center; transform: scale(1.2) translate(433px, -87px); transition: all 0.4s cubic-bezier(0.16, 1, 0.3, 1) 0s;"></path><path d="M 1182 540 C1182 651 1071 762 960 762  C849 762 738 651 738 540  C738 429 849 318 960 318  C1071 318 1182 429 1182 540" fill="none" stroke-linecap="round" stroke="url(#linear-gradient-r1)" stroke-width="0.3333333333333333" style="transform-origin: center center; transform: scale(1.2) translate(433px, -87px); transition: all 0.4s cubic-bezier(0.16, 1, 0.3, 1) 0s;"></path><path d="M 1149 540 C1149 634.5 1054.5 729 960 729  C865.5 729 771 634.5 771 540  C771 445.5 865.5 351 960 351  C1054.5 351 1149 445.5 1149 540" fill="none" stroke-linecap="round" stroke="url(#linear-gradient-r1)" stroke-width="0.3125" style="transform-origin: center center; transform: scale(1.2) translate(433px, -87px); transition: all 0.4s cubic-bezier(0.16, 1, 0.3, 1) 0s;"></path><path d="M 1116 540 C1116 618 1038 696 960 696  C882 696 804 618 804 540  C804 462 882 384 960 384  C1038 384 1116 462 1116 540" fill="none" stroke-linecap="round" stroke="url(#linear-gradient-r1)" stroke-width="0.29411764705882354" style="transform-origin: center center; transform: scale(1.2) translate(433px, -87px); transition: all 0.4s cubic-bezier(0.16, 1, 0.3, 1) 0s;"></path><path d="M 1083 540 C1083 601.5 1021.5 663 960 663  C898.5 663 837 601.5 837 540  C837 478.5 898.5 417 960 417  C1021.5 417 1083 478.5 1083 540" fill="none" stroke-linecap="round" stroke="url(#linear-gradient-r1)" stroke-width="0.2777777777777778" style="transform-origin: center center; transform: scale(1.2) translate(433px, -87px); transition: all 0.4s cubic-bezier(0.16, 1, 0.3, 1) 0s;"></path><path d="M 1050 540 C1050 585 1005 630 960 630  C915 630 870 585 870 540  C870 495 915 450 960 450  C1005 450 1050 495 1050 540" fill="none" stroke-linecap="round" stroke="url(#linear-gradient-r1)" stroke-width="0.2631578947368421" style="transform-origin: center center; transform: scale(1.2) translate(433px, -87px); transition: all 0.4s cubic-bezier(0.16, 1, 0.3, 1) 0s;"></path><path d="M 1016.9999999999999 539.9999999999999 C1016.9999999999999 568.4999999999999 988.4999999999999 596.9999999999999 959.9999999999999 596.9999999999999  C931.4999999999999 596.9999999999999 902.9999999999999 568.4999999999999 902.9999999999999 539.9999999999999  C902.9999999999999 511.4999999999999 931.4999999999999 482.9999999999999 959.9999999999999 482.9999999999999  C988.4999999999999 482.9999999999999 1016.9999999999999 511.4999999999999 1016.9999999999999 539.9999999999999" fill="none" stroke-linecap="round" stroke="url(#linear-gradient-r1)" stroke-width="0.25" style="transform-origin: center center; transform: scale(1.2) translate(433px, -87px); transition: all 0.4s cubic-bezier(0.16, 1, 0.3, 1) 0s;"></path></g></g></svg>