<svg width="243" height="239" viewBox="0 0 243 239" fill="none" xmlns="http://www.w3.org/2000/svg">
<path fill="white" fill-opacity="0.45" d="M0.71467 2.45382C-0.526277 4.89195 2.68756 9.8235 16.6355 26.3142C33.0677 45.7317 34.4805 46.4946 40.2647 37.4367C42.0865 34.6452 43.7604 32.617 44.2731 32.8561C45.9821 33.653 54.9506 45.4291 60.0678 53.6408C67.168 64.9618 87.9946 113.996 90.0025 124.191L91.5198 131.868L83.5702 137.315C61.8739 152.165 46.3427 174.986 44.6056 194.774C43.9244 202.258 44.4264 205.197 47.6071 213.546C50.6169 221.815 52.2922 224.469 56.7931 228.648C67.6064 238.476 79.5682 240.933 93.225 235.962C102.497 232.588 108.43 227.449 112.016 219.758C117.64 207.921 116.209 183.327 108.351 151.992L104.519 136.785L109.781 134.87C131.331 127.026 163.524 127.37 187.289 135.747C205.517 142.166 224.784 157.289 233.321 171.776C237.39 178.667 240.398 180.693 242.516 177.936C243.905 176.295 239.789 166.158 234.479 158.584C220.598 138.38 197.003 125.401 167.498 121.525C146.377 118.854 122 120.49 107.717 125.689L102.454 127.604L91.0772 98.6848C79.6885 69.3438 73.2258 56.6557 60.9632 38.5583C57.5785 33.5471 53.3849 28.2627 51.6529 26.6228L48.4511 23.6734L53.7124 18.6368C57.4933 14.9904 58.8255 12.8029 58.187 11.0488C56.7733 7.16473 55.11 6.49313 42.4992 4.98179C35.9831 4.23187 25.3088 2.58326 18.7812 1.41187C7.79922 -0.692309 1.98971 -0.280504 0.71467 2.45382ZM97.6762 148.782C110.005 198.639 108.2 220.58 91.6617 226.599C81.8889 230.156 65.4498 225.923 60.5265 218.634C57.233 213.874 53.9482 200.171 54.5387 193.996C55.8787 179.745 69.4172 159.635 85.544 147.806C96.0105 140.308 95.5434 140.194 97.6762 148.782Z" />
</svg>
